<svg width="124" height="106" viewBox="0 0 124 106" fill="none" xmlns="http://www.w3.org/2000/svg">
<g filter="url(#filter0_d_32_19040)">
<path d="M14.043 11.7856C13.8323 10.7784 14.9105 9.99497 15.8033 10.5066L51.3802 30.8962C52.2854 31.415 52.1351 32.764 51.1378 33.0707L33.8704 38.3824C33.603 38.4647 33.3731 38.6383 33.2208 38.8729L24.5787 52.1855C23.9992 53.0783 22.6291 52.8222 22.4111 51.7804L14.043 11.7856Z" fill="#EFAC00"/>
<path d="M23.603 51.4046L15.2835 11.6421L50.6598 31.9167L33.5048 37.1938C32.9586 37.3618 32.4888 37.7165 32.1777 38.1958L23.603 51.4046Z" stroke="white" stroke-width="2.48718"/>
</g>
<g filter="url(#filter1_d_32_19040)">
<rect x="44" y="61.1025" width="70" height="32" rx="4" fill="#EFAC00"/>
<path d="M68.37 76.6585C69.078 76.7905 69.66 77.1445 70.116 77.7205C70.572 78.2965 70.8 78.9565 70.8 79.7005C70.8 80.3725 70.632 80.9665 70.296 81.4825C69.972 81.9865 69.498 82.3825 68.874 82.6705C68.25 82.9585 67.512 83.1025 66.66 83.1025H61.242V70.5385H66.426C67.278 70.5385 68.01 70.6765 68.622 70.9525C69.246 71.2285 69.714 71.6125 70.026 72.1045C70.35 72.5965 70.512 73.1545 70.512 73.7785C70.512 74.5105 70.314 75.1225 69.918 75.6145C69.534 76.1065 69.018 76.4545 68.37 76.6585ZM63.762 75.7225H66.066C66.666 75.7225 67.128 75.5905 67.452 75.3265C67.776 75.0505 67.938 74.6605 67.938 74.1565C67.938 73.6525 67.776 73.2625 67.452 72.9865C67.128 72.7105 66.666 72.5725 66.066 72.5725H63.762V75.7225ZM66.3 81.0505C66.912 81.0505 67.386 80.9065 67.722 80.6185C68.07 80.3305 68.244 79.9225 68.244 79.3945C68.244 78.8545 68.064 78.4345 67.704 78.1345C67.344 77.8225 66.858 77.6665 66.246 77.6665H63.762V81.0505H66.3ZM71.9804 78.0805C71.9804 77.0725 72.1784 76.1785 72.5744 75.3985C72.9824 74.6185 73.5284 74.0185 74.2124 73.5985C74.9084 73.1785 75.6824 72.9685 76.5344 72.9685C77.2784 72.9685 77.9264 73.1185 78.4784 73.4185C79.0424 73.7185 79.4924 74.0965 79.8284 74.5525V73.1305H82.3664V83.1025H79.8284V81.6445C79.5044 82.1125 79.0544 82.5025 78.4784 82.8145C77.9144 83.1145 77.2604 83.2645 76.5164 83.2645C75.6764 83.2645 74.9084 83.0485 74.2124 82.6165C73.5284 82.1845 72.9824 81.5785 72.5744 80.7985C72.1784 80.0065 71.9804 79.1005 71.9804 78.0805ZM79.8284 78.1165C79.8284 77.5045 79.7084 76.9825 79.4684 76.5505C79.2284 76.1065 78.9044 75.7705 78.4964 75.5425C78.0884 75.3025 77.6504 75.1825 77.1824 75.1825C76.7144 75.1825 76.2824 75.2965 75.8864 75.5245C75.4904 75.7525 75.1664 76.0885 74.9144 76.5325C74.6744 76.9645 74.5544 77.4805 74.5544 78.0805C74.5544 78.6805 74.6744 79.2085 74.9144 79.6645C75.1664 80.1085 75.4904 80.4505 75.8864 80.6905C76.2944 80.9305 76.7264 81.0505 77.1824 81.0505C77.6504 81.0505 78.0884 80.9365 78.4964 80.7085C78.9044 80.4685 79.2284 80.1325 79.4684 79.7005C79.7084 79.2565 79.8284 78.7285 79.8284 78.1165ZM87.1676 74.6785C87.4916 74.1505 87.9116 73.7365 88.4276 73.4365C88.9556 73.1365 89.5556 72.9865 90.2276 72.9865V75.6325H89.5616C88.7696 75.6325 88.1696 75.8185 87.7616 76.1905C87.3656 76.5625 87.1676 77.2105 87.1676 78.1345V83.1025H84.6476V73.1305H87.1676V74.6785ZM94.679 75.2005V80.0245C94.679 80.3605 94.757 80.6065 94.913 80.7625C95.081 80.9065 95.357 80.9785 95.741 80.9785H96.911V83.1025H95.327C93.203 83.1025 92.141 82.0705 92.141 80.0065V75.2005H90.953V73.1305H92.141V70.6645H94.679V73.1305H96.911V75.2005H94.679Z" fill="#050623"/>
</g>
<defs>
<filter id="filter0_d_32_19040" x="9.04175" y="10.3457" width="47.9126" height="52.3325" filterUnits="userSpaceOnUse" color-interpolation-filters="sRGB">
<feFlood flood-opacity="0" result="BackgroundImageFix"/>
<feColorMatrix in="SourceAlpha" type="matrix" values="0 0 0 0 0 0 0 0 0 0 0 0 0 0 0 0 0 0 127 0" result="hardAlpha"/>
<feOffset dy="4.97436"/>
<feGaussianBlur stdDeviation="2.48718"/>
<feColorMatrix type="matrix" values="0 0 0 0 0 0 0 0 0 0 0 0 0 0 0 0 0 0 0.2 0"/>
<feBlend mode="normal" in2="BackgroundImageFix" result="effect1_dropShadow_32_19040"/>
<feBlend mode="normal" in="SourceGraphic" in2="effect1_dropShadow_32_19040" result="shape"/>
</filter>
<filter id="filter1_d_32_19040" x="34.0513" y="53.641" width="89.8974" height="51.8974" filterUnits="userSpaceOnUse" color-interpolation-filters="sRGB">
<feFlood flood-opacity="0" result="BackgroundImageFix"/>
<feColorMatrix in="SourceAlpha" type="matrix" values="0 0 0 0 0 0 0 0 0 0 0 0 0 0 0 0 0 0 127 0" result="hardAlpha"/>
<feOffset dy="2.48718"/>
<feGaussianBlur stdDeviation="4.97436"/>
<feColorMatrix type="matrix" values="0 0 0 0 0.937255 0 0 0 0 0.67451 0 0 0 0 0 0 0 0 0.3 0"/>
<feBlend mode="normal" in2="BackgroundImageFix" result="effect1_dropShadow_32_19040"/>
<feBlend mode="normal" in="SourceGraphic" in2="effect1_dropShadow_32_19040" result="shape"/>
</filter>
</defs>
</svg>
